<svg preserveAspectRatio="none" overflow="visible" style="display: block;" width="19.5" height="19.5" viewBox="0 0 19.5 19.5" fill="none" xmlns="http://www.w3.org/2000/svg">
<g id="Navigation Icons" clip-path="url(#clip0_0_323)">
<path id="Vector" d="M9.75 0C4.37 0 0 4.37 0 9.75C0 15.13 4.37 19.5 9.75 19.5C15.13 19.5 19.5 15.13 19.5 9.75C19.5 4.37 15.13 0 9.75 0ZM9.75 18C5.2 18 1.5 14.3 1.5 9.75C1.5 5.2 5.2 1.5 9.75 1.5C14.3 1.5 18 5.2 18 9.75C18 14.3 14.3 18 9.75 18Z" fill="#6D7B87"/>
<path id="Vector_2" d="M9.75 4C8.23 4 7 5.23 7 6.75C7 7.16 7.34 7.5 7.75 7.5C8.16 7.5 8.5 7.16 8.5 6.75C8.5 6.06 9.06 5.5 9.75 5.5C10.44 5.5 11 6.06 11 6.75C11 7.15 10.81 7.52 10.49 7.76C9.54 8.45 9 9.45 9 10.49V10.75C9 11.16 9.34 11.5 9.75 11.5C10.16 11.5 10.5 11.16 10.5 10.75V10.49C10.5 9.73 11.05 9.21 11.38 8.97C12.08 8.45 12.5 7.62 12.5 6.75C12.5 5.23 11.27 4 9.75 4Z" fill="#6D7B87"/>
<path id="Vector_3" d="M9.75 13C9.34 13 9 13.34 9 13.75V14.59C9 15 9.34 15.34 9.75 15.34C10.16 15.34 10.5 15 10.5 14.59V13.75C10.5 13.34 10.16 13 9.75 13Z" fill="#6D7B87"/>
</g>
<defs>
<clipPath id="clip0_0_323">
<rect width="19.5" height="19.5" fill="white"/>
</clipPath>
</defs>
</svg>
